<svg width="52" height="52" viewBox="0 0 52 52" fill="none" xmlns="http://www.w3.org/2000/svg">
<g clip-path="url(#clip0_904_3068)">
<path d="M21.2184 1.31748C25.8909 0.292485 30.8859 0.804984 35.2484 2.76748C40.7209 5.19248 45.1384 9.88248 47.2209 15.495C48.0784 17.7275 48.4834 20.1 48.6684 22.4775C50.2909 23.295 51.5134 24.9 51.7109 26.725C51.8509 28.1475 51.7459 29.5775 51.7759 31.0025C51.7409 32.59 51.9684 34.28 51.2359 35.7525C50.7184 36.9025 49.7484 37.76 48.6759 38.3875C48.6459 39.9 48.8209 41.445 48.4209 42.9275C47.8084 45.4675 45.7834 47.6 43.2859 48.3575C41.4234 48.9725 39.4409 48.645 37.5209 48.7375C37.1034 49.545 36.5209 50.3 35.6909 50.715C34.1684 51.53 32.3809 51.0775 30.7359 51.2C29.2359 51.3375 27.6359 50.7675 26.7759 49.49C25.6634 47.985 25.8684 45.7325 27.1809 44.415C28.1509 43.375 29.6409 43.1075 31.0034 43.195C32.6509 43.2875 34.4659 42.8875 35.9434 43.8175C36.6759 44.225 37.1359 44.9475 37.5259 45.665C38.7659 45.6625 40.0034 45.6925 41.2434 45.655C43.4559 45.6 45.4359 43.685 45.5884 41.4825C45.6484 40.6175 45.6109 39.75 45.6159 38.8825C43.9209 38.5625 42.4809 37.0425 42.5459 35.2675C42.5459 31.935 42.5159 28.6 42.5609 25.2675C42.6159 23.6075 44.0109 22.3125 45.5634 21.95C45.2209 17.3925 43.2334 12.9825 40.0134 9.73248C36.9609 6.61498 32.8509 4.50998 28.5034 4.00998C23.7559 3.36998 18.7784 4.56748 14.8559 7.32748C10.0509 10.615 6.82094 16.135 6.44344 21.9575C8.07094 22.32 9.48094 23.7575 9.45344 25.485C9.47094 28.7475 9.46094 32.0125 9.45844 35.275C9.50094 37.015 8.10594 38.6 6.40344 38.8725C3.47844 39.32 0.533441 36.965 0.263441 34.0275C0.115941 31.85 0.228441 29.6625 0.200941 27.48C0.200941 25.3625 1.48844 23.4025 3.34844 22.435C3.59344 17.215 5.69094 12.0975 9.22594 8.23998C12.3709 4.75748 16.6259 2.29248 21.2184 1.31748ZM4.85344 25.13C3.91844 25.4975 3.23094 26.46 3.26844 27.4775C3.25344 29.4125 3.26094 31.345 3.26594 33.28C3.16094 34.7225 4.56094 36.07 6.00344 35.8575C6.54844 35.62 6.42844 34.98 6.44844 34.5075C6.40844 31.505 6.49094 28.5 6.41094 25.5025C6.28844 24.785 5.35594 24.8925 4.85344 25.13ZM45.8184 25.0975C45.4909 25.255 45.6084 25.6975 45.5584 25.985C45.5584 28.91 45.5634 31.835 45.5559 34.76C45.5759 35.17 45.4984 35.715 46.0084 35.8525C47.4609 36.07 48.8284 34.7 48.7359 33.2625C48.7259 31.2475 48.7709 29.23 48.7134 27.215C48.6384 25.885 47.1184 24.5725 45.8184 25.0975ZM29.5909 46.37C28.8434 46.7025 28.9859 48.0425 29.8434 48.105C31.2684 48.1625 32.7084 48.19 34.1309 48.0875C35.0459 47.86 34.9284 46.35 33.9809 46.3025C32.5209 46.3025 31.0384 46.1825 29.5909 46.37Z" fill="#333333"/>
<path d="M12.655 17.76C12.76 15.0075 15.235 12.64 17.985 12.6425C23.4025 12.645 28.8225 12.62 34.24 12.655C37.0075 12.755 39.3525 15.2625 39.3575 18.015C39.3675 21.5925 39.3725 25.1725 39.355 28.7525C39.3275 31.4075 37.155 33.82 34.495 34.0525C32.05 34.17 29.5975 34.0475 27.1475 34.1125C25.6325 35.6175 24.13 37.135 22.6 38.625C21.47 39.74 19.435 39.535 18.505 38.2675C17.5775 37.09 17.98 35.5025 17.905 34.125C16.3875 33.96 14.8625 33.3325 13.895 32.1125C13.0825 31.1 12.605 29.8125 12.635 28.5075C12.65 24.925 12.61 21.3425 12.655 17.76ZM15.695 18.005C15.6575 19.3425 15.69 20.685 15.69 22.0225C15.68 24.18 15.6775 26.34 15.6875 28.4975C15.65 29.3675 16.0725 30.23 16.825 30.6825C17.62 31.2225 18.6275 30.975 19.525 31.0675C20.1925 31.08 20.8175 31.6025 20.89 32.2775C20.9925 33.5175 20.9 34.7625 20.9325 36.0075C22.38 34.59 23.8075 33.155 25.24 31.7225C25.5725 31.385 25.98 31.06 26.48 31.0625C28.9875 31.005 31.5 31.0875 34.01 31.03C35.205 31.015 36.29 29.955 36.2875 28.75C36.3275 25.4125 36.2825 22.075 36.3075 18.7375C36.315 17.97 36.3075 17.1025 35.7225 16.5225C35.2125 15.8725 34.3725 15.67 33.5825 15.6675C28.3825 15.715 23.1825 15.655 17.9825 15.6975C16.765 15.7 15.7 16.7925 15.695 18.005Z" fill="#333333"/>
<path d="M19.3311 21.6C20.7086 20.9925 22.3661 22.2725 22.1611 23.7525C22.0911 25.27 20.1611 26.2075 18.9211 25.3175C17.5036 24.4925 17.7561 22.095 19.3311 21.6Z" fill="#333333"/>
<path d="M25.101 21.655C26.4885 20.9325 28.2885 22.2 28.091 23.7425C28.0185 25.2425 26.1285 26.1925 24.886 25.34C23.4935 24.565 23.631 22.265 25.101 21.655Z" fill="#333333"/>
<path d="M31.0815 21.6225C32.5765 20.905 34.4365 22.4375 33.949 24.035C33.6965 25.5925 31.514 26.2025 30.449 25.06C29.379 24.0925 29.744 22.145 31.0815 21.6225Z" fill="#333333"/>
<path d="M15.6958 18.005C15.7008 16.7925 16.7658 15.7 17.9833 15.6975C23.1833 15.655 28.3833 15.715 33.5833 15.6675C33.4358 16.195 33.4058 16.815 32.9783 17.2125C32.4758 17.7525 31.6883 17.7825 31.0008 17.7875C26.4883 17.7725 21.9783 17.7825 17.4658 17.7825C17.4533 18.72 17.5558 19.6725 17.3833 20.6C17.1958 21.4075 16.4008 21.7775 15.6908 22.0225C15.6908 20.685 15.6583 19.3425 15.6958 18.005Z" fill="white"/>
<path d="M33.5811 15.6675C34.3711 15.67 35.2111 15.8725 35.7211 16.5225C36.3061 17.1025 36.3136 17.97 36.3061 18.7375C36.2811 22.075 36.3261 25.4125 36.2861 28.75C36.2886 29.955 35.2036 31.015 34.0086 31.03C31.4986 31.0875 28.9861 31.005 26.4786 31.0625C25.9786 31.06 25.5711 31.385 25.2386 31.7225C23.8061 33.155 22.3786 34.59 20.9311 36.0075C20.8986 34.7625 20.9911 33.5175 20.8886 32.2775C20.8161 31.6025 20.1911 31.08 19.5236 31.0675C18.6261 30.975 17.6186 31.2225 16.8236 30.6825C16.0711 30.23 15.6486 29.3675 15.6861 28.4975C15.6761 26.34 15.6786 24.18 15.6886 22.0225C16.3986 21.7775 17.1936 21.4075 17.3811 20.6C17.5536 19.6725 17.4511 18.72 17.4636 17.7825C21.9761 17.7825 26.4861 17.7725 30.9986 17.7875C31.6861 17.7825 32.4736 17.7525 32.9761 17.2125C33.4036 16.815 33.4336 16.195 33.5811 15.6675ZM19.3286 21.6C17.7536 22.095 17.5011 24.4925 18.9186 25.3175C20.1586 26.2075 22.0886 25.27 22.1586 23.7525C22.3636 22.2725 20.7061 20.9925 19.3286 21.6ZM25.0986 21.655C23.6286 22.265 23.4911 24.565 24.8836 25.34C26.1261 26.1925 28.0161 25.2425 28.0886 23.7425C28.2861 22.2 26.4861 20.9325 25.0986 21.655ZM31.0786 21.6225C29.7411 22.145 29.3761 24.0925 30.4461 25.06C31.5111 26.2025 33.6936 25.5925 33.9461 24.035C34.4336 22.4375 32.5736 20.905 31.0786 21.6225Z" fill="#FD7E14"/>
<path d="M4.85167 25.13C5.35417 24.8925 6.28667 24.785 6.40917 25.5025C6.48917 28.5 6.40667 31.505 6.44667 34.5075C6.42667 34.98 6.54667 35.62 6.00167 35.8575C4.55917 36.07 3.15917 34.7225 3.26417 33.28C3.25917 31.345 3.25167 29.4125 3.26667 27.4775C3.22917 26.46 3.91667 25.4975 4.85167 25.13Z" fill="#FD7E14"/>
<path d="M45.8172 25.0975C47.1172 24.5725 48.6372 25.885 48.7122 27.215C48.7697 29.23 48.7247 31.2475 48.7347 33.2625C48.8272 34.7 47.4597 36.07 46.0072 35.8525C45.4972 35.715 45.5747 35.17 45.5547 34.76C45.5622 31.835 45.5572 28.91 45.5572 25.985C45.6072 25.6975 45.4897 25.255 45.8172 25.0975Z" fill="#FD7E14"/>
<path d="M29.5882 46.37C31.0357 46.1825 32.5182 46.3025 33.9782 46.3025C34.9257 46.35 35.0432 47.86 34.1282 48.0875C32.7057 48.19 31.2657 48.1625 29.8407 48.105C28.9832 48.0425 28.8407 46.7025 29.5882 46.37Z" fill="#FD7E14"/>
</g>
<defs>
<clipPath id="clip0_904_3068">
<rect width="52" height="52" fill="white"/>
</clipPath>
</defs>
</svg>
