<svg width="52" height="52" viewBox="0 0 52 52" fill="none" xmlns="http://www.w3.org/2000/svg">
<g clip-path="url(#clip0_904_3082)">
<path d="M20.36 6.76001C20.455 5.03751 22.0125 3.5325 23.75 3.5625C32.0025 3.5475 40.2575 3.55 48.51 3.56C50.2675 3.515 51.73 4.98501 52 6.66751V39.595C51.79 40.6 51.2825 41.5775 50.4025 42.15C49.085 43.06 47.4075 42.685 45.91 42.7525C45.4275 44.4375 44.5025 46.04 43.045 47.06C40.595 48.92 36.9375 48.905 34.5075 47.0175C33.0875 45.99 32.1675 44.4225 31.695 42.7575C27.28 42.7525 22.8675 42.755 18.455 42.755C17.93 44.6825 16.75 46.475 14.985 47.4675C12.4475 49.0025 8.9775 48.7025 6.7375 46.7625C5.4875 45.7675 4.71 44.315 4.2775 42.8C3.4175 42.7325 2.4925 42.745 1.7425 42.2475C0.81 41.71 0.2425 40.725 0 39.7V24.92C0.455 23.88 1.425 23.2275 2.2025 22.4475C5.2225 19.55 8.25 16.66 11.2675 13.7575C11.9325 13.1175 12.8 12.6625 13.74 12.6575C15.9375 12.61 18.135 12.6625 20.3325 12.6425C20.36 10.6825 20.28 8.72001 20.36 6.76001ZM44.14 6.615L44.11 6.65001C37.2625 6.62001 30.415 6.64 23.5675 6.64C23.305 9.0325 23.505 11.455 23.455 13.86C23.4425 14.685 23.445 15.51 23.4475 16.335C31.9225 16.3225 40.4 16.33 48.8775 16.3275C48.84 13.1075 48.975 9.88751 48.8325 6.67001C47.27 6.56751 45.705 6.6275 44.14 6.615ZM13.205 16.2075C9.8425 19.4275 6.4875 22.655 3.1175 25.8675C3.11 26.69 3.11 27.5125 3.095 28.335C8.8425 28.3425 14.59 28.3375 20.34 28.34C20.3375 24.1425 20.34 19.945 20.3375 15.75C19.6975 15.7525 19.0575 15.755 18.42 15.7775C16.9375 15.7725 15.4525 15.7475 13.97 15.775C13.6375 15.7225 13.435 16.0325 13.205 16.2075ZM23.4475 19.43C23.445 26.17 23.4475 32.9075 23.445 39.645C26.21 39.6425 28.9725 39.65 31.7375 39.6425C32.205 37.8275 33.3075 36.1625 34.9125 35.165C37.395 33.53 40.9075 33.68 43.2275 35.545C44.565 36.5525 45.4275 38.055 45.8825 39.645C46.8525 39.6125 47.84 39.7475 48.7975 39.5425C48.87 39.2025 48.8775 38.855 48.885 38.51C48.8725 32.15 48.885 25.79 48.88 19.4325C40.4025 19.4275 31.925 19.4325 23.4475 19.43ZM3.135 39.23C3.185 39.7925 3.9075 39.595 4.2925 39.6775C4.76 37.735 6.005 35.985 7.7475 34.9925C10.145 33.5825 13.37 33.7325 15.6025 35.4075C17.025 36.4175 17.985 37.97 18.42 39.645C19.0575 39.645 19.6975 39.645 20.335 39.6475C20.33 36.905 20.335 34.1625 20.3325 31.42C14.59 31.415 8.85 31.42 3.11 31.4175C3.13 34.0225 3.07 36.6275 3.135 39.23ZM8.37 38.3725C7.1075 39.6475 6.9575 41.71 7.77 43.2675C8.33 44.085 9.105 44.7175 10.0075 45.1275C11.445 45.465 13.0875 45.27 14.17 44.1825C15.455 43.0275 15.7675 41.105 15.1575 39.525C14.7075 38.715 14.0775 38.02 13.29 37.5275C11.6775 36.73 9.5975 37.0275 8.37 38.3725ZM35.975 38.2175C34.5775 39.4825 34.3325 41.665 35.2275 43.2925C35.7925 44.1175 36.59 44.74 37.5025 45.14C39.0025 45.495 40.7175 45.2075 41.78 44.015C42.97 42.8425 43.145 41 42.5925 39.4825C42.1325 38.705 41.515 38.04 40.7575 37.5475C39.215 36.7675 37.2175 36.985 35.975 38.2175Z" fill="#333333"/>
<path d="M14.2123 18.9125C15.2348 18.91 16.2548 18.91 17.2773 18.9125C17.2548 20.6925 17.3248 22.475 17.2548 24.255C17.2648 25.0475 16.5323 25.705 15.7548 25.675C14.0348 25.7175 12.3123 25.67 10.5898 25.6875C10.5923 24.6625 10.5923 23.64 10.5898 22.6175C11.7973 22.62 13.0048 22.6175 14.2098 22.6175C14.2098 21.3825 14.2098 20.1475 14.2123 18.9125Z" fill="#333333"/>
<path d="M44.1399 6.61501C45.7049 6.62751 47.2699 6.56751 48.8324 6.67001C48.9749 9.88751 48.8399 13.1075 48.8774 16.3275C40.3999 16.33 31.9224 16.3225 23.4474 16.335C23.4449 15.51 23.4424 14.685 23.4549 13.86C24.1749 13.26 24.9374 12.5775 25.1149 11.6075C25.2824 10.55 25.1799 9.47501 25.1949 8.41001C30.4624 8.39251 35.7324 8.42501 40.9974 8.39501C42.2899 8.44751 43.3874 7.66001 44.1099 6.65001L44.1399 6.61501Z" fill="#FD7E14"/>
<path d="M18.4207 15.7775C19.0582 15.755 19.6982 15.7525 20.3382 15.75C20.3407 19.945 20.3382 24.1425 20.3407 28.34C14.5907 28.3375 8.8432 28.3425 3.0957 28.335C3.1082 28.14 3.1332 27.7475 3.1482 27.55C3.6157 27.4125 4.2782 27.5825 4.5857 27.1175C5.5557 25.7575 6.8707 24.7075 8.0482 23.54C10.1907 21.545 12.2582 19.4675 14.4207 17.4925C15.1882 17.465 15.9957 17.54 16.7232 17.23C17.4332 16.945 17.9232 16.33 18.4207 15.7775ZM14.2132 18.9125C14.2107 20.1475 14.2107 21.3825 14.2107 22.6175C13.0057 22.6175 11.7982 22.62 10.5907 22.6175C10.5932 23.64 10.5932 24.6625 10.5907 25.6875C12.3132 25.67 14.0357 25.7175 15.7557 25.675C16.5332 25.705 17.2657 25.0475 17.2557 24.255C17.3257 22.475 17.2557 20.6925 17.2782 18.9125C16.2557 18.91 15.2357 18.91 14.2132 18.9125Z" fill="#FD7E14"/>
<path d="M23.456 13.86C23.506 11.455 23.306 9.03251 23.5685 6.64001C30.416 6.64001 37.2635 6.62001 44.111 6.65001C43.3885 7.66001 42.291 8.44751 40.9985 8.39502C35.7335 8.42502 30.4635 8.39251 25.196 8.41001C25.181 9.47501 25.2835 10.55 25.116 11.6075C24.9385 12.5775 24.176 13.26 23.456 13.86Z" fill="#FDFDFD"/>
<path d="M13.2057 16.2075C13.4357 16.0325 13.6382 15.7225 13.9707 15.775C15.4532 15.7475 16.9382 15.7725 18.4207 15.7775C17.9232 16.33 17.4332 16.945 16.7232 17.23C15.9957 17.54 15.1882 17.465 14.4207 17.4925C12.2582 19.4675 10.1907 21.545 8.0482 23.54C6.8707 24.7075 5.5557 25.7575 4.5857 27.1175C4.2782 27.5825 3.6157 27.4125 3.1482 27.55C3.1332 27.7475 3.1082 28.14 3.0957 28.335C3.1107 27.5125 3.1107 26.69 3.1182 25.8675C6.4882 22.655 9.8432 19.4275 13.2057 16.2075Z" fill="#FDFDFD"/>
<path d="M23.4478 19.43C31.9253 19.4325 40.4028 19.4275 48.8803 19.4325C48.8853 25.79 48.8728 32.15 48.8853 38.51C48.8778 38.855 48.8703 39.2025 48.7978 39.5425C47.8403 39.7475 46.8528 39.6125 45.8828 39.645C45.4278 38.055 44.5653 36.5525 43.2278 35.545C40.9078 33.68 37.3953 33.53 34.9128 35.165C33.3078 36.1625 32.2053 37.8275 31.7378 39.6425C28.9728 39.65 26.2103 39.6425 23.4453 39.645C23.4478 32.9075 23.4453 26.17 23.4478 19.43Z" fill="#FDFDFD"/>
<path d="M3.13667 39.23C3.07167 36.6275 3.13167 34.0225 3.11167 31.4175C8.85167 31.42 14.5917 31.415 20.3342 31.42C20.3367 34.1625 20.3317 36.905 20.3367 39.6475C19.6992 39.645 19.0592 39.645 18.4217 39.645C17.9867 37.97 17.0267 36.4175 15.6042 35.4075C13.3717 33.7325 10.1467 33.5825 7.74917 34.9925C6.00667 35.985 4.76167 37.735 4.29417 39.6775C3.90917 39.595 3.18667 39.7925 3.13667 39.23Z" fill="#FDFDFD"/>
<path d="M8.37123 38.3725C9.59873 37.0275 11.6787 36.73 13.2912 37.5275C13.0262 37.8375 12.7887 38.1775 12.4737 38.44C11.6162 38.9125 10.5337 38.88 9.75373 39.5075C9.18623 40.095 9.15123 40.97 8.88873 41.705C8.74373 42.36 8.20873 42.8 7.77123 43.2675C6.95873 41.71 7.10873 39.6475 8.37123 38.3725Z" fill="#FDFDFD"/>
<path d="M35.9749 38.2175C37.2174 36.985 39.2149 36.7675 40.7574 37.5475C40.0824 38.6525 38.7874 38.8075 37.6749 39.205C36.7274 39.5275 36.6824 40.665 36.4099 41.4675C36.2624 42.2075 35.7149 42.755 35.2274 43.2925C34.3324 41.665 34.5774 39.4825 35.9749 38.2175Z" fill="#FDFDFD"/>
<path d="M13.2895 37.5275C14.077 38.02 14.707 38.715 15.157 39.525C14.772 39.7575 14.3595 39.9625 14.022 40.2675C13.652 41.035 13.637 41.9475 13.152 42.665C12.6745 43.18 11.9545 43.345 11.357 43.6775C10.7245 43.9525 10.3995 44.6 10.007 45.1275C9.10453 44.7175 8.32953 44.085 7.76953 43.2675C8.20703 42.8 8.74203 42.36 8.88703 41.705C9.14953 40.97 9.18453 40.095 9.75203 39.5075C10.532 38.88 11.6145 38.9125 12.472 38.44C12.787 38.1775 13.0245 37.8375 13.2895 37.5275Z" fill="#EEEEEE"/>
<path d="M40.7566 37.5475C41.5141 38.04 42.1316 38.705 42.5916 39.4825C42.2216 39.7275 41.8241 39.94 41.4991 40.245C41.0791 40.9875 41.0691 41.9 40.6241 42.6325C40.0341 43.285 39.0891 43.4075 38.3916 43.9125C38.0116 44.2525 37.7841 44.7225 37.5016 45.14C36.5891 44.74 35.7916 44.1175 35.2266 43.2925C35.7141 42.755 36.2616 42.2075 36.4091 41.4675C36.6816 40.665 36.7266 39.5275 37.6741 39.205C38.7866 38.8075 40.0816 38.6525 40.7566 37.5475Z" fill="#EEEEEE"/>
<path d="M14.0228 40.2675C14.3603 39.9625 14.7728 39.7575 15.1578 39.525C15.7678 41.105 15.4553 43.0275 14.1703 44.1825C13.0878 45.27 11.4453 45.465 10.0078 45.1275C10.4003 44.6 10.7253 43.9525 11.3578 43.6775C11.9553 43.345 12.6753 43.18 13.1528 42.665C13.6378 41.9475 13.6528 41.035 14.0228 40.2675Z" fill="#CACACA"/>
<path d="M41.4995 40.245C41.8245 39.94 42.222 39.7275 42.592 39.4825C43.1445 41 42.9695 42.8425 41.7795 44.015C40.717 45.2075 39.002 45.495 37.502 45.14C37.7845 44.7225 38.012 44.2525 38.392 43.9125C39.0895 43.4075 40.0345 43.285 40.6245 42.6325C41.0695 41.9 41.0795 40.9875 41.4995 40.245Z" fill="#CACACA"/>
</g>
<defs>
<clipPath id="clip0_904_3082">
<rect width="52" height="52" fill="white"/>
</clipPath>
</defs>
</svg>
