<svg width="52" height="52" viewBox="0 0 52 52" fill="none" xmlns="http://www.w3.org/2000/svg">
<g clip-path="url(#clip0_904_3121)">
<path d="M6.65812 0H30.6031C32.2406 0.1975 33.6631 1.5875 33.7556 3.26C33.8381 5.4275 33.7581 7.6025 33.7881 9.7725C37.5331 9.79 41.2806 9.755 45.0256 9.7875C46.9331 9.7925 48.5481 11.5825 48.4356 13.4725C48.4381 18.9025 48.4431 24.335 48.4331 29.7675C48.4931 31.625 46.8606 33.3075 45.0056 33.32C41.2656 33.35 37.5256 33.3225 33.7881 33.33C33.7731 38.39 33.8056 43.45 33.7731 48.51C33.7706 50.2525 32.3481 51.755 30.6456 52H6.69063C4.99563 51.76 3.53813 50.26 3.57313 48.51C3.55813 33.5025 3.56062 18.49 3.57062 3.4825C3.53562 1.7425 4.97812 0.255 6.65812 0ZM6.67812 3.2C6.62312 15.505 6.66813 27.81 6.65563 40.115C14.6531 40.1175 22.6531 40.115 30.6506 40.1175C30.6556 37.855 30.6481 35.5925 30.6556 33.33C26.9431 33.3325 23.2281 33.3325 19.5156 33.3325C17.5906 33.41 15.8156 31.6875 15.8881 29.75C15.8856 24.255 15.8781 18.7575 15.8931 13.2625C15.8631 11.3675 17.6006 9.715 19.4806 9.7775C23.2056 9.77 26.9281 9.7775 30.6531 9.775C30.6506 7.8475 30.6531 5.92 30.6556 3.9925C30.6131 3.705 30.7556 3.2875 30.4031 3.1575C29.7756 3.0575 29.1381 3.1125 28.5056 3.105C21.5931 3.105 14.6781 3.1075 7.76562 3.1025C7.40062 3.1075 7.03812 3.15 6.67812 3.2ZM19.0781 13.0175C18.9156 14.295 19.0481 15.5925 19.0106 16.8775C19.6006 16.875 20.1906 16.875 20.7806 16.88C28.9681 16.9025 37.1581 16.885 45.3456 16.89C45.3206 15.5725 45.4031 14.2525 45.2856 12.94C44.5081 12.89 43.7306 12.865 42.9531 12.9075C35.3831 12.88 27.8131 12.9125 20.2456 12.8925C19.8581 12.9225 19.4331 12.83 19.0781 13.0175ZM19.0081 19.9925C19.0256 22.725 18.9706 25.46 19.0381 28.1925C18.8731 28.8475 19.0056 29.53 19.0656 30.1925C27.5456 30.285 36.0306 30.2025 44.5131 30.235C44.8206 30.235 45.4231 30.24 45.3356 29.76C45.3806 26.5 45.3406 23.2375 45.3531 19.9775C37.1581 19.9875 28.9656 19.955 20.7731 19.9925C20.1831 19.9975 19.5956 19.9925 19.0081 19.9925ZM6.65313 43.2125C6.66063 44.605 6.63813 45.9975 6.66813 47.39C7.69813 47.025 8.38813 46.0875 8.49313 45.01C13.9156 45.0025 19.3381 45.0075 24.7581 45.0075C25.8031 44.995 26.9256 45.13 27.8806 44.6075C28.5006 44.315 28.9281 43.7625 29.3181 43.22C21.7631 43.2025 14.2081 43.2175 6.65313 43.2125Z" fill="#333333"/>
<path d="M6.67847 3.2C7.03847 3.15 7.40097 3.1075 7.76597 3.1025C14.6785 3.1075 21.5935 3.105 28.506 3.105C29.1385 3.1125 29.776 3.0575 30.4035 3.1575C30.756 3.2875 30.6135 3.705 30.656 3.9925C30.6535 5.92 30.651 7.8475 30.6535 9.775C26.9285 9.7775 23.206 9.77 19.481 9.7775C17.601 9.715 15.8635 11.3675 15.8935 13.2625C15.8785 18.7575 15.886 24.255 15.8885 29.75C15.816 31.6875 17.591 33.41 19.516 33.3325C23.2285 33.3325 26.9435 33.3325 30.656 33.33C30.6485 35.5925 30.656 37.855 30.651 40.1175C22.6535 40.115 14.6535 40.1175 6.65597 40.115C6.66847 27.81 6.62347 15.505 6.67847 3.2Z" fill="white"/>
<path d="M19.0793 13.0175C19.4343 12.83 19.8593 12.9225 20.2468 12.8925C27.8143 12.9125 35.3843 12.88 42.9543 12.9075C42.5443 13.4225 42.1318 13.975 41.5243 14.265C40.5993 14.765 39.5168 14.6275 38.5093 14.6475C32.5968 14.6375 26.6843 14.6425 20.7743 14.645C20.7743 15.39 20.7768 16.135 20.7818 16.88C20.1918 16.875 19.6018 16.875 19.0118 16.8775C19.0493 15.5925 18.9168 14.295 19.0793 13.0175Z" fill="white"/>
<path d="M19.0086 19.9925C19.5961 19.9925 20.1836 19.9975 20.7736 19.9925C20.6311 21.905 20.8611 23.825 20.6936 25.735C20.5936 26.7925 19.7886 27.535 19.0386 28.1925C18.9711 25.46 19.0261 22.725 19.0086 19.9925Z" fill="white"/>
<path d="M6.65348 43.2125C14.2085 43.2175 21.7635 43.2025 29.3185 43.22C28.9285 43.7625 28.501 44.315 27.881 44.6075C26.926 45.13 25.8035 44.995 24.7585 45.0075C19.3385 45.0075 13.916 45.0025 8.49348 45.01C8.38848 46.0875 7.69848 47.025 6.66848 47.39C6.63848 45.9975 6.66098 44.605 6.65348 43.2125Z" fill="white"/>
<path d="M42.9515 12.9075C43.729 12.865 44.5065 12.89 45.284 12.94C45.4015 14.2525 45.319 15.5725 45.344 16.89C37.1565 16.885 28.9665 16.9025 20.779 16.88C20.774 16.135 20.7715 15.39 20.7715 14.645C26.6815 14.6425 32.594 14.6375 38.5065 14.6475C39.514 14.6275 40.5965 14.765 41.5215 14.265C42.129 13.975 42.5415 13.4225 42.9515 12.9075Z" fill="#FD7E14"/>
<path d="M20.7718 19.9925C28.9643 19.955 37.1568 19.9875 45.3518 19.9775C45.3393 23.2375 45.3793 26.5 45.3343 29.76C45.4218 30.24 44.8193 30.235 44.5118 30.235C36.0293 30.2025 27.5443 30.285 19.0643 30.1925C19.0043 29.53 18.8718 28.8475 19.0368 28.1925C19.7868 27.535 20.5918 26.7925 20.6918 25.735C20.8593 23.825 20.6293 21.905 20.7718 19.9925Z" fill="#FD7E14"/>
</g>
<defs>
<clipPath id="clip0_904_3121">
<rect width="52" height="52" fill="white"/>
</clipPath>
</defs>
</svg>
