<svg width="52" height="52" viewBox="0 0 52 52" fill="none" xmlns="http://www.w3.org/2000/svg">
<g clip-path="url(#clip0_904_3102)">
<path d="M15.0325 0H36.8925C37.31 0.255 37.835 0.5075 37.9475 1.035C38.155 1.8725 38.085 2.755 38.3325 3.585C38.9 5.485 40.315 7.0775 42.075 7.9675C43.0175 8.4975 44.0975 8.665 45.12 8.98C45.76 9.18 46.0925 9.865 46.0625 10.505C46.1775 15.815 45.345 21.175 43.3725 26.1175C41.3975 31.1825 38.0075 35.5575 34.1425 39.33C35.8625 39.345 37.58 39.3375 39.2975 39.3375C39.3825 38.655 39.25 37.8175 39.83 37.3175C40.3275 36.8 41.1075 36.915 41.7575 36.8825C44.6725 36.925 47.59 36.8525 50.5025 36.9125C51.2275 36.87 51.69 37.4775 52 38.045V47.9625C51.73 48.5625 51.2725 49.23 50.53 49.195C47.84 49.2575 45.145 49.195 42.455 49.2175C42.4225 49.8325 42.48 50.465 42.305 51.06C42.1425 51.545 41.6475 51.7675 41.2375 52H10.785C10.37 51.77 9.8725 51.55 9.695 51.0725C9.49 50.4775 9.5525 49.835 9.5125 49.22C6.835 49.195 4.155 49.2575 1.4775 49.1975C0.735 49.2275 0.2575 48.58 0 47.9675V38.065C0.2825 37.4675 0.765 36.87 1.4975 36.915C4.415 36.8525 7.335 36.925 10.2525 36.8825C10.9025 36.9125 11.6825 36.81 12.1775 37.3325C12.7375 37.84 12.62 38.66 12.7025 39.3375C14.1625 39.3375 15.6225 39.3475 17.0825 39.3225C14.66 36.9075 12.3925 34.3025 10.6725 31.3325C7.085 25.22 5.845 18.0075 5.9 11C5.91 10.3225 5.9525 9.485 6.6075 9.1025C7.3375 8.7625 8.155 8.6875 8.9075 8.4125C11.62 7.4925 13.845 4.9375 13.9075 2.0025C13.8525 1.1525 14.265 0.38 15.0325 0ZM16.945 3.1175C16.355 7.23 12.99 10.585 9.0425 11.64C8.97 17.205 9.94 22.8525 12.3275 27.9075C14.2875 32.01 17.225 35.6625 20.91 38.34C21.3625 38.6725 21.805 39.0325 22.31 39.285C23.41 39.4125 24.5275 39.3275 25.6325 39.3L25.765 39.2025L25.89 39.31C26.9475 39.3525 28.0075 39.335 29.065 39.3475C31.1425 37.865 33.085 36.1825 34.7675 34.2625C39.425 29.085 42.16 22.3225 42.7625 15.41C42.8825 14.1575 42.9825 12.9 42.9675 11.64C39.0275 10.5875 35.6725 7.2525 35.0525 3.1575C29.02 3.0575 22.98 3.115 16.945 3.1175ZM3.06 39.9575C3.0625 42.0175 3.055 44.0775 3.065 46.1375C5.25 46.13 7.435 46.1425 9.62 46.1325C9.595 44.07 9.6 42.01 9.585 39.95C7.41 39.9575 5.235 39.94 3.06 39.9575ZM42.405 39.95C42.395 42.01 42.4075 44.07 42.3875 46.13C44.5625 46.145 46.74 46.1275 48.9175 46.14C48.9175 44.345 48.9125 42.5525 48.925 40.7575C48.88 40.47 49.0675 39.8325 48.535 39.9575C46.4925 39.9325 44.4475 39.9625 42.405 39.95ZM12.6625 42.4325C12.66 44.0675 12.6575 45.705 12.665 47.3425C12.6375 47.855 12.6325 48.3725 12.61 48.8875C21.535 48.9175 30.46 48.9425 39.3825 48.875C39.345 46.7225 39.38 44.57 39.375 42.4175C38.475 42.4125 37.575 42.41 36.6775 42.435C28.6725 42.4225 20.6675 42.4325 12.6625 42.4325Z" fill="#333333"/>
<path d="M23.7951 11.3125C26.5701 10.735 29.5526 11.2975 31.9526 12.8C35.0926 14.725 37.2001 18.2925 37.2101 21.995C37.3126 24.96 36.1201 27.9325 34.0151 30.02C31.9401 32.15 28.9827 33.3875 26.0101 33.3725C22.9051 33.4 19.8251 32.05 17.7326 29.76C15.3351 27.2425 14.2902 23.55 14.9577 20.1425C15.7552 15.765 19.4302 12.1275 23.7951 11.3125ZM19.2651 17.74C17.8176 19.8275 17.4477 22.6425 18.3952 25.0125C19.3652 28.145 22.7176 30.355 26.0051 30.265C29.8676 30.3725 33.5001 27.315 34.0401 23.485C34.7951 19.38 31.7976 15.085 27.6926 14.3625L27.7002 14.3425C24.5352 13.7375 21.0651 15.0275 19.2651 17.74Z" fill="#333333"/>
<path d="M24.7441 22.8C26.2216 21.4525 27.5041 19.905 28.9491 18.5225C29.5841 19.27 30.6016 19.8025 30.9791 20.7C29.4041 22.4575 27.7091 24.11 26.1091 25.8525C25.5616 26.5725 24.4441 27.0075 23.7041 26.2975C22.7516 25.3425 21.9566 24.2425 21.0566 23.2375C21.8291 22.5775 22.5966 21.91 23.3941 21.2825C23.8166 21.81 24.2116 22.375 24.7441 22.8Z" fill="#333333"/>
<path d="M16.9453 3.11749C22.9803 3.11499 29.0203 3.05749 35.0528 3.15749C33.9678 3.25749 32.8778 3.26999 31.7903 3.27999C31.0253 4.03499 30.1528 4.84499 29.0178 4.89999C25.5228 5.01749 22.0153 4.80499 18.5253 4.99249C18.1553 5.50749 17.9278 6.10249 17.6578 6.67249C16.6303 8.89749 14.9203 10.8275 12.7453 11.985C12.1178 12.3375 11.4153 12.585 10.8678 13.0675C10.8878 16.8525 11.5353 20.645 12.7803 24.2225C13.2203 25.4475 13.1978 26.875 12.3278 27.9075C9.94033 22.8525 8.97033 17.205 9.04283 11.64C12.9903 10.585 16.3553 7.22999 16.9453 3.11749Z" fill="white"/>
<path d="M19.2658 17.74C21.0658 15.0275 24.5358 13.7375 27.7008 14.3425L27.6933 14.3625C27.4533 14.9525 27.2233 15.7625 26.4783 15.8625C25.2958 16.0375 24.0483 16.0975 22.9908 16.7225C20.9533 17.7725 19.6233 19.9775 19.6183 22.2675C19.6508 23.335 19.0733 24.2425 18.3958 25.0125C17.4483 22.6425 17.8183 19.8275 19.2658 17.74Z" fill="white"/>
<path d="M12.6627 42.4325C20.6677 42.4325 28.6727 42.4225 36.6777 42.435C35.9902 43.385 34.9827 44.2125 33.7502 44.19C27.3277 44.2125 20.9052 44.185 14.4852 44.2C14.4027 45.49 13.7302 46.62 12.6652 47.3425C12.6577 45.705 12.6602 44.0675 12.6627 42.4325Z" fill="white"/>
<path d="M29.0172 4.9C30.1522 4.845 31.0247 4.035 31.7897 3.28C32.8772 3.27 33.9672 3.2575 35.0522 3.1575C35.6722 7.2525 39.0272 10.5875 42.9672 11.64C42.9822 12.9 42.8822 14.1575 42.7622 15.41C42.1147 15.86 41.3822 16.275 41.0047 16.9975C40.5772 17.8575 40.4672 18.8225 40.2497 19.745C38.6797 26.9075 34.3622 33.4075 28.3772 37.6425C27.5622 38.2175 26.7197 38.755 25.8897 39.31L25.7647 39.3H25.6322C24.9272 38.82 24.1997 38.3175 23.3522 38.1375C22.5347 37.9725 21.7097 38.1875 20.9097 38.34C17.2247 35.6625 14.2872 32.01 12.3272 27.9075C13.1972 26.875 13.2197 25.4475 12.7797 24.2225C11.5347 20.645 10.8872 16.8525 10.8672 13.0675C11.4147 12.585 12.1172 12.3375 12.7447 11.985C14.9197 10.8275 16.6297 8.8975 17.6572 6.6725C17.9272 6.1025 18.1547 5.5075 18.5247 4.9925C22.0147 4.805 25.5222 5.0175 29.0172 4.9ZM23.7947 11.3125C19.4297 12.1275 15.7547 15.765 14.9572 20.1425C14.2897 23.55 15.3347 27.2425 17.7322 29.76C19.8247 32.05 22.9047 33.4 26.0097 33.3725C28.9822 33.3875 31.9397 32.15 34.0147 30.02C36.1197 27.9325 37.3122 24.96 37.2097 21.995C37.1997 18.2925 35.0922 14.725 31.9522 12.8C29.5522 11.2975 26.5697 10.735 23.7947 11.3125Z" fill="#EEEEEE"/>
<path d="M27.694 14.3625C31.799 15.085 34.7965 19.38 34.0415 23.485C33.5015 27.315 29.869 30.3725 26.0065 30.265C22.719 30.355 19.3665 28.145 18.3965 25.0125C19.074 24.2425 19.6515 23.335 19.619 22.2675C19.624 19.9775 20.954 17.7725 22.9915 16.7225C24.049 16.0975 25.2965 16.0375 26.479 15.8625C27.224 15.7625 27.454 14.9525 27.694 14.3625ZM24.7465 22.8C24.214 22.375 23.819 21.81 23.3965 21.2825C22.599 21.91 21.8315 22.5775 21.059 23.2375C21.959 24.2425 22.754 25.3425 23.7065 26.2975C24.4465 27.0075 25.564 26.5725 26.1115 25.8525C27.7115 24.11 29.4065 22.4575 30.9815 20.7C30.604 19.8025 29.5865 19.27 28.9515 18.5225C27.5065 19.905 26.224 21.4525 24.7465 22.8Z" fill="#FD7E14"/>
<path d="M3.06093 39.9575C5.23593 39.94 7.41093 39.9575 9.58593 39.95C9.60093 42.01 9.59593 44.07 9.62093 46.1325C7.43593 46.1425 5.25093 46.13 3.06593 46.1375C3.05593 44.0775 3.06343 42.0175 3.06093 39.9575Z" fill="#FD7E14"/>
<path d="M42.4062 39.95C44.4487 39.9625 46.4937 39.9325 48.5362 39.9575C49.0687 39.8325 48.8812 40.47 48.9262 40.7575C48.9137 42.5525 48.9187 44.345 48.9187 46.14C46.7412 46.1275 44.5637 46.145 42.3887 46.13C42.4087 44.07 42.3962 42.01 42.4062 39.95Z" fill="#FD7E14"/>
<path d="M36.6788 42.435C37.5763 42.41 38.4763 42.4125 39.3763 42.4175C39.3813 44.57 39.3463 46.7225 39.3838 48.875C30.4613 48.9425 21.5363 48.9175 12.6113 48.8875C12.6338 48.3725 12.6388 47.855 12.6663 47.3425C13.7313 46.62 14.4038 45.49 14.4863 44.2C20.9063 44.185 27.3288 44.2125 33.7513 44.19C34.9838 44.2125 35.9913 43.385 36.6788 42.435Z" fill="#FD7E14"/>
<path d="M41.0056 16.9975C41.3831 16.275 42.1156 15.86 42.7631 15.41C42.1606 22.3225 39.4256 29.085 34.7681 34.2625C33.0856 36.1825 31.1431 37.865 29.0656 39.3475C28.0081 39.335 26.9481 39.3525 25.8906 39.31C26.7206 38.755 27.5631 38.2175 28.3781 37.6425C34.3631 33.4075 38.6806 26.9075 40.2506 19.745C40.4681 18.8225 40.5781 17.8575 41.0056 16.9975Z" fill="#CACACA"/>
<path d="M20.9102 38.34C21.7102 38.1875 22.5352 37.9725 23.3527 38.1375C24.2002 38.3175 24.9277 38.82 25.6327 39.3C24.5277 39.3275 23.4102 39.4125 22.3102 39.285C21.8052 39.0325 21.3627 38.6725 20.9102 38.34Z" fill="#CACACA"/>
</g>
<defs>
<clipPath id="clip0_904_3102">
<rect width="52" height="52" fill="white"/>
</clipPath>
</defs>
</svg>
